<svg width="375" height="138" viewBox="0 0 375 138" fill="none" xmlns="http://www.w3.org/2000/svg">
<path d="M-28.6896 68.5962C-77.5389 4.51923 -63.1715 4.51923 14.4127 68.5962C96.8866 140.75 111.254 140.75 57.515 68.5962C8.66571 -3.5577 23.0331 -3.5577 100.617 68.5962C170.385 126.212 184.753 126.212 143.72 68.5962C94.8703 10.9808 109.238 10.9808 186.822 68.5962C267.306 130.519 281.674 130.519 229.924 68.5962C181.075 6.67308 195.442 6.67308 273.027 68.5962C364.104 152.058 378.471 152.058 316.129 68.5962C267.28 -14.8654 281.647 -14.8654 359.231 68.5962C437.316 153.135 451.683 153.135 402.333 68.5962" stroke="#0000FF" stroke-width="12"/>
</svg>
