<svg width="327" height="95" viewBox="0 0 327 95" fill="none" xmlns="http://www.w3.org/2000/svg">
<rect width="327" height="95" fill="#C4C4C4"/>
<path d="M71.3829 64.383H59.1101M71.3829 64.383V31.0051M71.3829 64.383L59.1101 31.0051M71.3829 64.383L58.115 22.1517M71.3829 64.383L59.9062 19.8072M71.3829 64.383L65.346 18.8509M71.3829 64.383L70.7859 19.8072M71.3829 64.383L72.6434 22.1517M71.3829 64.383L70.7859 24.4653M71.3829 64.383L65.346 25.3907M71.3829 64.383L59.9062 24.4653M59.1101 64.383V31.0051M59.1101 64.383L71.3829 31.0051M59.1101 64.383L58.115 22.1517M59.1101 64.383L59.9062 19.8072M59.1101 64.383L65.346 18.8509M59.1101 64.383L70.7859 19.8072M59.1101 64.383L72.6434 22.1517M59.1101 64.383L70.7859 24.4653M59.1101 64.383L65.346 25.3907M59.1101 64.383L59.9062 24.4653M59.1101 31.0051H71.3829M59.1101 31.0051L58.115 22.1517M59.1101 31.0051L59.9062 19.8072M59.1101 31.0051L65.346 18.8509M59.1101 31.0051L70.7859 19.8072M59.1101 31.0051L72.6434 22.1517M59.1101 31.0051L70.7859 24.4653M59.1101 31.0051L65.346 25.3907M59.1101 31.0051L59.9062 24.4653M71.3829 31.0051L58.115 22.1517M71.3829 31.0051L59.9062 19.8072M71.3829 31.0051L65.346 18.8509M71.3829 31.0051L70.7859 19.8072M71.3829 31.0051L72.6434 22.1517M71.3829 31.0051L70.7859 24.4653M71.3829 31.0051L65.346 25.3907M71.3829 31.0051L59.9062 24.4653M58.115 22.1517C58.115 21.2262 58.7121 20.4447 59.9062 19.8072M58.115 22.1517C58.115 23.0771 58.7121 23.8483 59.9062 24.4653M58.115 22.1517L59.9062 19.8072M58.115 22.1517L65.346 18.8509M58.115 22.1517L70.7859 19.8072M58.115 22.1517H72.6434M58.115 22.1517L70.7859 24.4653M58.115 22.1517L65.346 25.3907M58.115 22.1517L59.9062 24.4653M59.9062 19.8072C61.1445 19.1697 62.9578 18.8509 65.346 18.8509M59.9062 19.8072L65.346 18.8509M59.9062 19.8072H70.7859M59.9062 19.8072L72.6434 22.1517M59.9062 19.8072L70.7859 24.4653M59.9062 19.8072L65.346 25.3907M59.9062 19.8072V24.4653M65.346 18.8509C67.7342 18.8509 69.5475 19.1697 70.7859 19.8072M65.346 18.8509L70.7859 19.8072M65.346 18.8509L72.6434 22.1517M65.346 18.8509L70.7859 24.4653M65.346 18.8509V25.3907M65.346 18.8509L59.9062 24.4653M70.7859 19.8072C72.0242 20.4447 72.6434 21.2262 72.6434 22.1517M70.7859 19.8072L72.6434 22.1517M70.7859 19.8072V24.4653M70.7859 19.8072L65.346 25.3907M70.7859 19.8072L59.9062 24.4653M72.6434 22.1517C72.6434 23.0771 72.0242 23.8483 70.7859 24.4653M72.6434 22.1517L70.7859 24.4653M72.6434 22.1517L65.346 25.3907M72.6434 22.1517L59.9062 24.4653M70.7859 24.4653C69.5475 25.0823 67.7342 25.3907 65.346 25.3907M70.7859 24.4653L65.346 25.3907M70.7859 24.4653H59.9062M65.346 25.3907C62.9578 25.3907 61.1445 25.0823 59.9062 24.4653M65.346 25.3907L59.9062 24.4653M38.3458 64.383H26.073V17H38.3458V64.383ZM104.868 29.0051L105.266 33.2005C110.75 29.9923 117.915 28.3882 126.76 28.3882C141.93 28.3882 149.581 32.3676 149.713 40.3265V62.383H137.441V40.2956C137.396 37.8895 136.202 36.1105 133.858 34.9589C131.559 33.8072 127.954 33.2314 123.045 33.2314C119.065 33.2314 115.571 33.7249 112.563 34.7121C109.556 35.6992 107.212 36.9949 105.531 38.599V62.383H93.2585V29.0051H104.868ZM190.43 54.928L182.734 58.6607V70.383H170.461V23H182.734V51.6581L189.302 47.9871L211.658 37.0051H226.585L198.656 50.9486L229.835 70.383H215.44L190.43 54.928ZM289.74 48.5296C289.74 46.9871 288.48 45.7943 285.959 44.9512C283.482 44.0874 279.126 43.347 272.89 42.7301C266.698 42.1131 261.767 41.3728 258.096 40.509C254.47 39.6452 251.772 38.617 250.003 37.4242C248.278 36.2314 247.416 34.8123 247.416 33.1671C247.416 30.4319 249.892 28.1183 254.846 26.2262C259.843 24.3342 266.212 23.3882 273.952 23.3882C282.089 23.3882 288.679 24.365 293.721 26.3188C298.807 28.2725 301.35 30.7712 301.35 33.8149H289.011C289.011 32.2519 287.573 30.9049 284.699 29.7738C281.868 28.6427 278.286 28.0771 273.952 28.0771C269.485 28.0771 265.991 28.5296 263.47 29.4344C260.949 30.3393 259.689 31.5218 259.689 32.982C259.689 34.3599 260.861 35.3985 263.205 36.0977C265.549 36.7969 284.699 39.2262 275.875 38.1028C282.023 38.7404 286.998 39.5013 290.802 40.3856C294.605 41.2699 297.414 42.3393 299.227 43.5938C301.084 44.8278 302.013 46.3393 302.013 48.1285C302.013 51.1105 299.448 53.5064 294.318 55.3162C289.188 57.1054 282.531 58 274.35 58C268.6 58 263.514 57.527 259.092 56.581C254.669 55.635 251.197 54.3188 248.676 52.6324C246.2 50.9254 244.961 49.0848 244.961 47.1105H257.234C257.455 49.0231 259.092 50.545 262.143 51.6761C265.239 52.7866 269.308 53.3419 274.35 53.3419C278.993 53.3419 282.708 52.91 285.495 52.0463C288.325 51.162 289.74 49.9897 289.74 48.5296Z" stroke="#FF0000" stroke-width="16.74"/>
</svg>
